<?xml version="1.0" encoding="utf-8"?>
<!-- Generator: Adobe Illustrator 15.1.0, SVG Export Plug-In . SVG Version: 6.00 Build 0)  -->
<!DOCTYPE svg PUBLIC "-//W3C//DTD SVG 1.1//EN" "http://www.w3.org/Graphics/SVG/1.1/DTD/svg11.dtd">
<svg version="1.1" id="Layer_1" xmlns="http://www.w3.org/2000/svg" xmlns:xlink="http://www.w3.org/1999/xlink" x="0px" y="0px"
	 width="450px" height="60px" viewBox="0 0 450 60" enable-background="new 0 0 450 60" xml:space="preserve">
<g>
	<rect x="250" y="20" fill="#000000" width="10" height="20"/>
	<polygon fill="#000000" points="300,50 280,50 280,10 270,10 270,60 300,60 	"/>
	<rect x="210" y="20" fill="#000000" width="10" height="30"/>
	<polygon fill="#000000" points="320,50 340,50 340,60 350,60 350,20 340,20 340,40 320,40 320,20 310,20 310,60 320,60 	"/>
	<rect x="190" y="10" fill="#000000" width="20" height="10"/>
	<polygon fill="#000000" points="240,50 250,50 250,40 240,40 240,20 250,20 250,10 230,10 230,60 240,60 	"/>
	<rect x="370" y="10" fill="#000000" width="20" height="10"/>
	<rect x="440" y="20" fill="#000000" width="10" height="40"/>
	<polygon fill="#000000" points="410,20 420,20 420,60 430,60 430,20 440,20 440,10 400,10 400,60 410,60 	"/>
	<polygon fill="#000000" points="390,30 370,30 370,20 360,20 360,40 380,40 380,50 390,50 	"/>
	<rect x="360" y="50" fill="#000000" width="20" height="10"/>
	<rect x="320" y="10" fill="#000000" width="20" height="10"/>
	<rect x="110" y="50" fill="#000000" width="20" height="10"/>
	<rect x="30" y="30" fill="#000000" width="10" height="10"/>
	<rect x="40" fill="#000000" width="10" height="30"/>
	<polygon fill="#000000" points="90,50 70,50 70,40 80,40 80,30 70,30 70,20 90,20 90,10 60,10 60,60 90,60 	"/>
	<polygon fill="#000000" points="20,50 10,50 10,0 0,0 0,60 20,60 	"/>
	<rect x="20" y="40" fill="#000000" width="10" height="10"/>
	<rect x="190" y="50" fill="#000000" width="20" height="10"/>
	<rect x="100" y="20" fill="#000000" width="10" height="30"/>
	<polygon fill="#000000" points="150,60 160,60 160,20 170,20 170,10 140,10 140,20 150,20 	"/>
	<rect x="180" y="20" fill="#000000" width="10" height="30"/>
	<rect x="110" y="10" fill="#000000" width="20" height="10"/>
</g>
</svg>
