<?xml version="1.0" encoding="utf-8"?>
<!-- Generator: Adobe Illustrator 15.1.0, SVG Export Plug-In . SVG Version: 6.00 Build 0)  -->
<!DOCTYPE svg PUBLIC "-//W3C//DTD SVG 1.1//EN" "http://www.w3.org/Graphics/SVG/1.1/DTD/svg11.dtd">
<svg version="1.1" id="Layer_1" xmlns="http://www.w3.org/2000/svg" xmlns:xlink="http://www.w3.org/1999/xlink" x="0px" y="0px"
	 width="100px" height="162.5px" viewBox="0 0 100 162.5" enable-background="new 0 0 100 162.5" xml:space="preserve">
<g>
	<path id="svg_ghost svg_ghostbody" fill="#dbc3cc" d="M88.125,116.25c-6.759,0-12.586-5.3-15.28-12.95c0.683,0.29,1.406,0.45,2.155,0.45
		c4.142,0,7.5-4.757,7.5-10.625S79.142,82.5,75,82.5c-0.547,0-1.079,0.088-1.593,0.246c2.891-6.859,8.397-11.496,14.718-11.496
		c4.009,0,7.689,1.867,10.584,4.98C93.596,54.046,73.737,37.5,50,37.5c-27.614,0-50,22.386-50,50v70c0,2.762,4.477,5,10,5
		s14.477-10,20-10s14.477,10,20,10s14.477-10,20-10s14.477,10,20,10s10-2.238,10-5v-47.767
		C96.951,113.761,92.756,116.25,88.125,116.25z M44.375,116.25c-6.759,0-12.586-5.3-15.28-12.95c0.683,0.29,1.406,0.45,2.155,0.45
		c4.142,0,7.5-4.757,7.5-10.625S35.392,82.5,31.25,82.5c-0.547,0-1.079,0.088-1.593,0.246c2.891-6.859,8.397-11.496,14.718-11.496
		c9.32,0,16.875,10.074,16.875,22.5S53.695,116.25,44.375,116.25z"/>
	<polygon id="svg_ghost svg_ghostarrow" fill="#dbc3cc" points="98.75,27.5 61.25,0 61.25,17.5 3.75,17.5 3.75,27.5 	"/>
</g>
</svg>
